<mxfile host="app.diagrams.net" modified="2023-05-21T14:50:19.117Z" agent="Mozilla/5.0 (Macintosh; Intel Mac OS X 10_15_7) AppleWebKit/605.1.15 (KHTML, like Gecko) Version/15.6 Safari/605.1.15" etag="viKCFGasQwEfcgb0e8rL" version="21.3.2" type="github">
  <diagram name="Page-1" id="vmJ5c6L-gRFng07Bv-zx">
    <mxGraphModel dx="703" dy="456" grid="1" gridSize="10" guides="1" tooltips="1" connect="1" arrows="1" fold="1" page="1" pageScale="1" pageWidth="827" pageHeight="1169" math="0" shadow="0">
      <root>
        <mxCell id="0" />
        <mxCell id="1" parent="0" />
        <mxCell id="EOyjiTKzc3FAu_mDsJ5T-1" value="" style="whiteSpace=wrap;html=1;aspect=fixed;" vertex="1" parent="1">
          <mxGeometry x="270" y="245" width="40" height="40" as="geometry" />
        </mxCell>
        <mxCell id="EOyjiTKzc3FAu_mDsJ5T-2" value="" style="whiteSpace=wrap;html=1;aspect=fixed;" vertex="1" parent="1">
          <mxGeometry x="420" y="245" width="40" height="40" as="geometry" />
        </mxCell>
        <mxCell id="EOyjiTKzc3FAu_mDsJ5T-4" value="" style="whiteSpace=wrap;html=1;aspect=fixed;" vertex="1" parent="1">
          <mxGeometry x="570" y="245" width="40" height="40" as="geometry" />
        </mxCell>
        <mxCell id="EOyjiTKzc3FAu_mDsJ5T-5" value="&lt;b&gt;T&lt;sub&gt;1&lt;/sub&gt;&lt;/b&gt;" style="ellipse;whiteSpace=wrap;html=1;aspect=fixed;" vertex="1" parent="1">
          <mxGeometry x="340" y="120" width="40" height="40" as="geometry" />
        </mxCell>
        <mxCell id="EOyjiTKzc3FAu_mDsJ5T-6" value="&lt;b style=&quot;border-color: var(--border-color);&quot;&gt;T&lt;sub&gt;2&lt;/sub&gt;&lt;/b&gt;" style="ellipse;whiteSpace=wrap;html=1;aspect=fixed;" vertex="1" parent="1">
          <mxGeometry x="560" y="80" width="40" height="40" as="geometry" />
        </mxCell>
        <mxCell id="EOyjiTKzc3FAu_mDsJ5T-7" value="&lt;b style=&quot;border-color: var(--border-color);&quot;&gt;T&lt;sub&gt;3&lt;/sub&gt;&lt;/b&gt;" style="ellipse;whiteSpace=wrap;html=1;aspect=fixed;" vertex="1" parent="1">
          <mxGeometry x="545" y="370" width="40" height="40" as="geometry" />
        </mxCell>
        <mxCell id="EOyjiTKzc3FAu_mDsJ5T-9" value="" style="ellipse;whiteSpace=wrap;html=1;aspect=fixed;fillColor=#000000;" vertex="1" parent="1">
          <mxGeometry x="280" y="255" width="10" height="10" as="geometry" />
        </mxCell>
        <mxCell id="EOyjiTKzc3FAu_mDsJ5T-12" value="" style="ellipse;whiteSpace=wrap;html=1;aspect=fixed;fillColor=#000000;" vertex="1" parent="1">
          <mxGeometry x="290" y="265" width="10" height="10" as="geometry" />
        </mxCell>
        <mxCell id="EOyjiTKzc3FAu_mDsJ5T-13" value="" style="ellipse;whiteSpace=wrap;html=1;aspect=fixed;fillColor=#000000;" vertex="1" parent="1">
          <mxGeometry x="425" y="255" width="10" height="10" as="geometry" />
        </mxCell>
        <mxCell id="EOyjiTKzc3FAu_mDsJ5T-14" value="" style="ellipse;whiteSpace=wrap;html=1;aspect=fixed;fillColor=#000000;" vertex="1" parent="1">
          <mxGeometry x="440" y="255" width="10" height="10" as="geometry" />
        </mxCell>
        <mxCell id="EOyjiTKzc3FAu_mDsJ5T-15" value="" style="ellipse;whiteSpace=wrap;html=1;aspect=fixed;fillColor=#000000;" vertex="1" parent="1">
          <mxGeometry x="425" y="271" width="10" height="10" as="geometry" />
        </mxCell>
        <mxCell id="EOyjiTKzc3FAu_mDsJ5T-16" value="" style="ellipse;whiteSpace=wrap;html=1;aspect=fixed;fillColor=#000000;" vertex="1" parent="1">
          <mxGeometry x="441" y="271" width="10" height="10" as="geometry" />
        </mxCell>
        <mxCell id="EOyjiTKzc3FAu_mDsJ5T-18" value="" style="ellipse;whiteSpace=wrap;html=1;aspect=fixed;fillColor=#000000;" vertex="1" parent="1">
          <mxGeometry x="585" y="255" width="10" height="10" as="geometry" />
        </mxCell>
        <mxCell id="EOyjiTKzc3FAu_mDsJ5T-19" value="" style="ellipse;whiteSpace=wrap;html=1;aspect=fixed;fillColor=#000000;" vertex="1" parent="1">
          <mxGeometry x="575" y="265" width="10" height="10" as="geometry" />
        </mxCell>
        <mxCell id="EOyjiTKzc3FAu_mDsJ5T-20" value="" style="ellipse;whiteSpace=wrap;html=1;aspect=fixed;fillColor=#000000;" vertex="1" parent="1">
          <mxGeometry x="595" y="270" width="10" height="10" as="geometry" />
        </mxCell>
        <mxCell id="EOyjiTKzc3FAu_mDsJ5T-21" style="edgeStyle=orthogonalEdgeStyle;rounded=0;orthogonalLoop=1;jettySize=auto;html=1;exitX=1;exitY=1;exitDx=0;exitDy=0;entryX=1;entryY=0;entryDx=0;entryDy=0;" edge="1" parent="1" source="EOyjiTKzc3FAu_mDsJ5T-18" target="EOyjiTKzc3FAu_mDsJ5T-18">
          <mxGeometry relative="1" as="geometry" />
        </mxCell>
        <mxCell id="EOyjiTKzc3FAu_mDsJ5T-22" value="&lt;b&gt;A&lt;/b&gt;" style="text;html=1;strokeColor=none;fillColor=none;align=center;verticalAlign=middle;whiteSpace=wrap;rounded=0;" vertex="1" parent="1">
          <mxGeometry x="260" y="215" width="60" height="30" as="geometry" />
        </mxCell>
        <mxCell id="EOyjiTKzc3FAu_mDsJ5T-23" value="&lt;b&gt;B&lt;/b&gt;" style="text;html=1;strokeColor=none;fillColor=none;align=center;verticalAlign=middle;whiteSpace=wrap;rounded=0;" vertex="1" parent="1">
          <mxGeometry x="410" y="215" width="60" height="30" as="geometry" />
        </mxCell>
        <mxCell id="EOyjiTKzc3FAu_mDsJ5T-25" value="&lt;b&gt;C&lt;/b&gt;" style="text;html=1;strokeColor=none;fillColor=none;align=center;verticalAlign=middle;whiteSpace=wrap;rounded=0;" vertex="1" parent="1">
          <mxGeometry x="575" y="215" width="60" height="30" as="geometry" />
        </mxCell>
        <mxCell id="EOyjiTKzc3FAu_mDsJ5T-29" value="" style="endArrow=classic;html=1;rounded=0;strokeWidth=2;exitX=1;exitY=0;exitDx=0;exitDy=0;" edge="1" parent="1" source="EOyjiTKzc3FAu_mDsJ5T-9" target="EOyjiTKzc3FAu_mDsJ5T-5">
          <mxGeometry width="50" height="50" relative="1" as="geometry">
            <mxPoint x="290" y="255" as="sourcePoint" />
            <mxPoint x="340" y="205" as="targetPoint" />
          </mxGeometry>
        </mxCell>
        <mxCell id="EOyjiTKzc3FAu_mDsJ5T-30" value="" style="endArrow=classic;html=1;rounded=0;strokeWidth=2;exitX=0;exitY=0;exitDx=0;exitDy=0;" edge="1" parent="1" source="EOyjiTKzc3FAu_mDsJ5T-7">
          <mxGeometry width="50" height="50" relative="1" as="geometry">
            <mxPoint x="240" y="383" as="sourcePoint" />
            <mxPoint x="300" y="285" as="targetPoint" />
          </mxGeometry>
        </mxCell>
        <mxCell id="EOyjiTKzc3FAu_mDsJ5T-31" value="" style="endArrow=classic;html=1;rounded=0;strokeWidth=2;exitX=1;exitY=0;exitDx=0;exitDy=0;entryX=0;entryY=1;entryDx=0;entryDy=0;" edge="1" parent="1" source="EOyjiTKzc3FAu_mDsJ5T-7" target="EOyjiTKzc3FAu_mDsJ5T-4">
          <mxGeometry width="50" height="50" relative="1" as="geometry">
            <mxPoint x="436" y="376" as="sourcePoint" />
            <mxPoint x="310" y="295" as="targetPoint" />
          </mxGeometry>
        </mxCell>
        <mxCell id="EOyjiTKzc3FAu_mDsJ5T-32" value="" style="endArrow=classic;html=1;rounded=0;strokeWidth=2;exitX=0;exitY=1;exitDx=0;exitDy=0;entryX=0;entryY=1;entryDx=0;entryDy=0;" edge="1" parent="1" source="EOyjiTKzc3FAu_mDsJ5T-6">
          <mxGeometry width="50" height="50" relative="1" as="geometry">
            <mxPoint x="334" y="326" as="sourcePoint" />
            <mxPoint x="450" y="245" as="targetPoint" />
          </mxGeometry>
        </mxCell>
        <mxCell id="EOyjiTKzc3FAu_mDsJ5T-33" value="" style="endArrow=classic;html=1;rounded=0;strokeWidth=2;exitX=0;exitY=1;exitDx=0;exitDy=0;entryX=0.729;entryY=0.904;entryDx=0;entryDy=0;entryPerimeter=0;" edge="1" parent="1" source="EOyjiTKzc3FAu_mDsJ5T-13" target="EOyjiTKzc3FAu_mDsJ5T-5">
          <mxGeometry width="50" height="50" relative="1" as="geometry">
            <mxPoint x="474" y="386" as="sourcePoint" />
            <mxPoint x="360" y="160" as="targetPoint" />
          </mxGeometry>
        </mxCell>
        <mxCell id="EOyjiTKzc3FAu_mDsJ5T-34" value="" style="endArrow=classic;html=1;rounded=0;strokeWidth=2;entryX=0;entryY=0.25;entryDx=0;entryDy=0;" edge="1" parent="1" target="EOyjiTKzc3FAu_mDsJ5T-4">
          <mxGeometry width="50" height="50" relative="1" as="geometry">
            <mxPoint x="380" y="140" as="sourcePoint" />
            <mxPoint x="496" y="70" as="targetPoint" />
          </mxGeometry>
        </mxCell>
        <mxCell id="EOyjiTKzc3FAu_mDsJ5T-35" value="" style="endArrow=classic;html=1;rounded=0;strokeWidth=2;exitX=0.5;exitY=0;exitDx=0;exitDy=0;entryX=0.675;entryY=1.017;entryDx=0;entryDy=0;entryPerimeter=0;" edge="1" parent="1" source="EOyjiTKzc3FAu_mDsJ5T-18" target="EOyjiTKzc3FAu_mDsJ5T-6">
          <mxGeometry width="50" height="50" relative="1" as="geometry">
            <mxPoint x="345" y="50" as="sourcePoint" />
            <mxPoint x="535" y="154" as="targetPoint" />
          </mxGeometry>
        </mxCell>
        <mxCell id="EOyjiTKzc3FAu_mDsJ5T-36" value="" style="endArrow=classic;html=1;rounded=0;strokeWidth=2;exitX=1;exitY=1;exitDx=0;exitDy=0;entryX=0.5;entryY=0;entryDx=0;entryDy=0;" edge="1" parent="1" source="EOyjiTKzc3FAu_mDsJ5T-16" target="EOyjiTKzc3FAu_mDsJ5T-7">
          <mxGeometry width="50" height="50" relative="1" as="geometry">
            <mxPoint x="400" y="171" as="sourcePoint" />
            <mxPoint x="590" y="275" as="targetPoint" />
          </mxGeometry>
        </mxCell>
        <mxCell id="EOyjiTKzc3FAu_mDsJ5T-37" value="" style="endArrow=classic;html=1;rounded=0;strokeWidth=2;entryX=1;entryY=0;entryDx=0;entryDy=0;exitX=0;exitY=1;exitDx=0;exitDy=0;" edge="1" parent="1" source="EOyjiTKzc3FAu_mDsJ5T-15" target="EOyjiTKzc3FAu_mDsJ5T-38">
          <mxGeometry width="50" height="50" relative="1" as="geometry">
            <mxPoint x="450" y="270" as="sourcePoint" />
            <mxPoint x="600" y="285" as="targetPoint" />
          </mxGeometry>
        </mxCell>
        <mxCell id="EOyjiTKzc3FAu_mDsJ5T-38" value="&lt;b&gt;T&lt;sub&gt;4&lt;/sub&gt;&lt;/b&gt;" style="ellipse;whiteSpace=wrap;html=1;aspect=fixed;" vertex="1" parent="1">
          <mxGeometry x="275" y="380" width="40" height="40" as="geometry" />
        </mxCell>
      </root>
    </mxGraphModel>
  </diagram>
</mxfile>
